<svg width="1920" height="353" viewBox="0 0 1920 353" fill="none" xmlns="http://www.w3.org/2000/svg">
<g clip-path="url(#clip0_23_742)">
<path d="M5.6748 310.518V330.397L-11.542 340.338L-28.7588 330.397V310.518L-11.542 300.576L5.6748 310.518Z" stroke="#FFF700"/>
<path d="M22.6748 340.518V360.397L5.458 370.338L-11.7588 360.397V340.518L5.458 330.576L22.6748 340.518Z" stroke="#FFF700"/>
<path d="M39.6748 310.518V330.397L22.458 340.338L5.2412 330.397V310.518L22.458 300.576L39.6748 310.518Z" stroke="#FFF700"/>
<path d="M56.6748 340.518V360.397L39.458 370.338L22.2412 360.397V340.518L39.458 330.576L56.6748 340.518Z" stroke="#FFF700"/>
<path d="M73.6748 310.518V330.397L56.458 340.338L39.2412 330.397V310.518L56.458 300.576L73.6748 310.518Z" stroke="#FFF700"/>
<path d="M56.6748 280.518V300.397L39.458 310.338L22.2412 300.397V280.518L39.458 270.576L56.6748 280.518Z" stroke="#FFF700"/>
<path d="M22.6748 280.518V300.397L5.458 310.338L-11.7588 300.397V280.518L5.458 270.576L22.6748 280.518Z" stroke="#FFF700"/>
<path d="M90.675 340.518V360.397L73.458 370.338L56.2412 360.397V340.518L73.458 330.576L90.675 340.518Z" stroke="#FFF700"/>
<path d="M124.675 340.518V360.397L107.458 370.338L90.241 360.397V340.518L107.458 330.576L124.675 340.518Z" stroke="#FFF700"/>
<path d="M158.675 340.518V360.397L141.458 370.338L124.241 360.397V340.518L141.458 330.576L158.675 340.518Z" stroke="#FFF700"/>
<path d="M141.675 310.518V330.397L124.458 340.338L107.241 330.397V310.518L124.458 300.576L141.675 310.518Z" stroke="#FFF700"/>
<path d="M107.675 310.518V330.397L90.458 340.338L73.2412 330.397V310.518L90.458 300.576L107.675 310.518Z" stroke="#FFF700"/>
<path d="M73.6748 250.518V270.397L56.458 280.338L39.2412 270.397V250.518L56.458 240.576L73.6748 250.518Z" stroke="#FFF700"/>
<path d="M90.675 280.518V300.397L73.458 310.338L56.2412 300.397V280.518L73.458 270.576L90.675 280.518Z" stroke="#FFF700"/>
<path d="M107.675 250.518V270.397L90.458 280.338L73.2412 270.397V250.518L90.458 240.576L107.675 250.518Z" stroke="#FFF700"/>
<path d="M124.675 280.518V300.397L107.458 310.338L90.241 300.397V280.518L107.458 270.576L124.675 280.518Z" stroke="#FFF700"/>
<path d="M141.675 250.518V270.397L124.458 280.338L107.241 270.397V250.518L124.458 240.576L141.675 250.518Z" stroke="#FFF700"/>
<path d="M124.675 220.518V240.397L107.458 250.338L90.241 240.397V220.518L107.458 210.576L124.675 220.518Z" stroke="#FFF700"/>
<path d="M90.675 220.518V240.397L73.458 250.338L56.2412 240.397V220.518L73.458 210.576L90.675 220.518Z" stroke="#FFF700"/>
<path d="M5.6748 250.518V270.397L-11.542 280.338L-28.7588 270.397V250.518L-11.542 240.576L5.6748 250.518Z" stroke="#FFF700"/>
<path d="M22.6748 220.518V240.397L5.458 250.338L-11.7588 240.397V220.518L5.458 210.576L22.6748 220.518Z" stroke="#FFF700"/>
<path d="M39.6748 250.518V270.397L22.458 280.338L5.2412 270.397V250.518L22.458 240.576L39.6748 250.518Z" stroke="#FFF700"/>
<path d="M56.6748 220.518V240.397L39.458 250.338L22.2412 240.397V220.518L39.458 210.576L56.6748 220.518Z" stroke="#FFF700"/>
<path d="M39.6748 190.518V210.397L22.458 220.338L5.2412 210.397V190.518L22.458 180.576L39.6748 190.518Z" stroke="#FFF700"/>
<path d="M5.6748 190.518V210.397L-11.542 220.338L-28.7588 210.397V190.518L-11.542 180.576L5.6748 190.518Z" stroke="#FFF700"/>
<path d="M175.675 310.518V330.397L158.458 340.338L141.241 330.397V310.518L158.458 300.576L175.675 310.518Z" stroke="#FFF700"/>
<path d="M192.675 340.518V360.397L175.458 370.338L158.241 360.397V340.518L175.458 330.576L192.675 340.518Z" stroke="#FFF700"/>
<path d="M209.675 310.518V330.397L192.458 340.338L175.241 330.397V310.518L192.458 300.576L209.675 310.518Z" stroke="#FFF700"/>
<path d="M226.675 340.518V360.397L209.458 370.338L192.241 360.397V340.518L209.458 330.576L226.675 340.518Z" stroke="#FFF700"/>
<path d="M243.675 310.518V330.397L226.458 340.338L209.241 330.397V310.518L226.458 300.576L243.675 310.518Z" stroke="#FFF700"/>
<path d="M226.675 280.518V300.397L209.458 310.338L192.241 300.397V280.518L209.458 270.576L226.675 280.518Z" stroke="#FFF700"/>
<path d="M192.675 280.518V300.397L175.458 310.338L158.241 300.397V280.518L175.458 270.576L192.675 280.518Z" stroke="#FFF700"/>
<path d="M158.675 220.518V240.397L141.458 250.338L124.241 240.397V220.518L141.458 210.576L158.675 220.518Z" stroke="#FFF700"/>
<path d="M175.675 250.518V270.397L158.458 280.338L141.241 270.397V250.518L158.458 240.576L175.675 250.518Z" stroke="#FFF700"/>
<path d="M192.675 220.518V240.397L175.458 250.338L158.241 240.397V220.518L175.458 210.576L192.675 220.518Z" stroke="#FFF700"/>
<path d="M209.675 250.518V270.397L192.458 280.338L175.241 270.397V250.518L192.458 240.576L209.675 250.518Z" stroke="#FFF700"/>
<path d="M226.675 220.518V240.397L209.458 250.338L192.241 240.397V220.518L209.458 210.576L226.675 220.518Z" stroke="#FFF700"/>
<path d="M209.675 190.518V210.397L192.458 220.338L175.241 210.397V190.518L192.458 180.576L209.675 190.518Z" stroke="#FFF700"/>
<path d="M175.675 190.518V210.397L158.458 220.338L141.241 210.397V190.518L158.458 180.576L175.675 190.518Z" stroke="#FFF700"/>
<path d="M260.675 340.518V360.397L243.458 370.338L226.241 360.397V340.518L243.458 330.576L260.675 340.518Z" stroke="#FFF700"/>
<path d="M294.675 340.518V360.397L277.458 370.338L260.241 360.397V340.518L277.458 330.576L294.675 340.518Z" stroke="#FFF700"/>
<path d="M328.675 340.518V360.397L311.458 370.338L294.241 360.397V340.518L311.458 330.576L328.675 340.518Z" stroke="#FFF700"/>
<path d="M311.675 310.518V330.397L294.458 340.338L277.241 330.397V310.518L294.458 300.576L311.675 310.518Z" stroke="#FFF700"/>
<path d="M277.675 310.518V330.397L260.458 340.338L243.241 330.397V310.518L260.458 300.576L277.675 310.518Z" stroke="#FFF700"/>
<path d="M243.675 250.518V270.397L226.458 280.338L209.241 270.397V250.518L226.458 240.576L243.675 250.518Z" stroke="#FFF700"/>
<path d="M260.675 280.518V300.397L243.458 310.338L226.241 300.397V280.518L243.458 270.576L260.675 280.518Z" stroke="#FFF700"/>
<path d="M277.675 250.518V270.397L260.458 280.338L243.241 270.397V250.518L260.458 240.576L277.675 250.518Z" stroke="#FFF700"/>
<path d="M294.675 280.518V300.397L277.458 310.338L260.241 300.397V280.518L277.458 270.576L294.675 280.518Z" stroke="#FFF700"/>
<path d="M311.675 250.518V270.397L294.458 280.338L277.241 270.397V250.518L294.458 240.576L311.675 250.518Z" stroke="#FFF700"/>
<path d="M294.675 220.518V240.397L277.458 250.338L260.241 240.397V220.518L277.458 210.576L294.675 220.518Z" stroke="#FFF700"/>
<path d="M260.675 220.518V240.397L243.458 250.338L226.241 240.397V220.518L243.458 210.576L260.675 220.518Z" stroke="#FFF700"/>
<path d="M328.675 280.518V300.397L311.458 310.338L294.241 300.397V280.518L311.458 270.576L328.675 280.518Z" stroke="#FFF700"/>
<path d="M345.675 310.518V330.397L328.458 340.338L311.241 330.397V310.518L328.458 300.576L345.675 310.518Z" stroke="#FFF700"/>
<path d="M362.675 280.518V300.397L345.458 310.338L328.241 300.397V280.518L345.458 270.576L362.675 280.518Z" stroke="#FFF700"/>
<path d="M379.675 310.518V330.397L362.458 340.338L345.241 330.397V310.518L362.458 300.576L379.675 310.518Z" stroke="#FFF700"/>
<path d="M396.675 280.518V300.397L379.458 310.338L362.241 300.397V280.518L379.458 270.576L396.675 280.518Z" stroke="#FFF700"/>
<path d="M379.675 250.518V270.397L362.458 280.338L345.241 270.397V250.518L362.458 240.576L379.675 250.518Z" stroke="#FFF700"/>
<path d="M345.675 250.518V270.397L328.458 280.338L311.241 270.397V250.518L328.458 240.576L345.675 250.518Z" stroke="#FFF700"/>
<path d="M396.675 340.518V360.397L379.458 370.338L362.241 360.397V340.518L379.458 330.576L396.675 340.518Z" stroke="#FFF700"/>
<path d="M430.675 340.518V360.397L413.458 370.338L396.241 360.397V340.518L413.458 330.576L430.675 340.518Z" stroke="#FFF700"/>
<path d="M464.675 340.518V360.397L447.458 370.338L430.241 360.397V340.518L447.458 330.576L464.675 340.518Z" stroke="#FFF700"/>
<path d="M447.675 310.518V330.397L430.458 340.338L413.241 330.397V310.518L430.458 300.576L447.675 310.518Z" stroke="#FFF700"/>
<path d="M413.675 310.518V330.397L396.458 340.338L379.241 330.397V310.518L396.458 300.576L413.675 310.518Z" stroke="#FFF700"/>
<path d="M532.675 340.518V360.397L515.458 370.338L498.241 360.397V340.518L515.458 330.576L532.675 340.518Z" stroke="#FFF700"/>
<path d="M498.675 340.518V360.397L481.458 370.338L464.241 360.397V340.518L481.458 330.576L498.675 340.518Z" stroke="#FFF700"/>
<path d="M90.675 160.518V180.397L73.458 190.338L56.2412 180.397V160.518L73.458 150.576L90.675 160.518Z" stroke="#FFF700"/>
<path d="M107.675 190.518V210.397L90.458 220.338L73.2412 210.397V190.518L90.458 180.576L107.675 190.518Z" stroke="#FFF700"/>
<path d="M124.675 160.518V180.397L107.458 190.338L90.241 180.397V160.518L107.458 150.576L124.675 160.518Z" stroke="#FFF700"/>
<path d="M141.675 190.518V210.397L124.458 220.338L107.241 210.397V190.518L124.458 180.576L141.675 190.518Z" stroke="#FFF700"/>
<path d="M158.675 160.518V180.397L141.458 190.338L124.241 180.397V160.518L141.458 150.576L158.675 160.518Z" stroke="#FFF700"/>
<path d="M141.675 130.518V150.397L124.458 160.338L107.241 150.397V130.518L124.458 120.576L141.675 130.518Z" stroke="#FFF700"/>
<path d="M107.675 130.518V150.397L90.458 160.338L73.2412 150.397V130.518L90.458 120.576L107.675 130.518Z" stroke="#FFF700"/>
<path d="M4.6748 130.518V150.397L-12.542 160.338L-29.7588 150.397V130.518L-12.542 120.576L4.6748 130.518Z" stroke="#FFF700"/>
<path d="M21.6748 160.518V180.397L4.458 190.338L-12.7588 180.397V160.518L4.458 150.576L21.6748 160.518Z" stroke="#FFF700"/>
<path d="M38.6748 130.518V150.397L21.458 160.338L4.2412 150.397V130.518L21.458 120.576L38.6748 130.518Z" stroke="#FFF700"/>
<path d="M55.6748 160.518V180.397L38.458 190.338L21.2412 180.397V160.518L38.458 150.576L55.6748 160.518Z" stroke="#FFF700"/>
<path d="M72.6748 130.518V150.397L55.458 160.338L38.2412 150.397V130.518L55.458 120.576L72.6748 130.518Z" stroke="#FFF700"/>
<path d="M55.6748 100.518V120.397L38.458 130.338L21.2412 120.397V100.518L38.458 90.5762L55.6748 100.518Z" stroke="#FFF700"/>
<path d="M21.6748 100.518V120.397L4.458 130.338L-12.7588 120.397V100.518L4.458 90.5762L21.6748 100.518Z" stroke="#FFF700"/>
<path d="M464.675 281.518V301.397L447.458 311.338L430.241 301.397V281.518L447.458 271.576L464.675 281.518Z" stroke="#FFF700"/>
<path d="M481.675 311.518V331.397L464.458 341.338L447.241 331.397V311.518L464.458 301.576L481.675 311.518Z" stroke="#FFF700"/>
<path d="M498.675 281.518V301.397L481.458 311.338L464.241 301.397V281.518L481.458 271.576L498.675 281.518Z" stroke="#FFF700"/>
<path d="M515.675 311.518V331.397L498.458 341.338L481.241 331.397V311.518L498.458 301.576L515.675 311.518Z" stroke="#FFF700"/>
<path d="M532.675 281.518V301.397L515.458 311.338L498.241 301.397V281.518L515.458 271.576L532.675 281.518Z" stroke="#FFF700"/>
<path d="M515.675 251.518V271.397L498.458 281.338L481.241 271.397V251.518L498.458 241.576L515.675 251.518Z" stroke="#FFF700"/>
<path d="M481.675 251.518V271.397L464.458 281.338L447.241 271.397V251.518L464.458 241.576L481.675 251.518Z" stroke="#FFF700"/>
<path d="M396.675 221.518V241.397L379.458 251.338L362.241 241.397V221.518L379.458 211.576L396.675 221.518Z" stroke="#FFF700"/>
<path d="M413.675 251.518V271.397L396.458 281.338L379.241 271.397V251.518L396.458 241.576L413.675 251.518Z" stroke="#FFF700"/>
<path d="M430.675 221.518V241.397L413.458 251.338L396.241 241.397V221.518L413.458 211.576L430.675 221.518Z" stroke="#FFF700"/>
<path d="M447.675 251.518V271.397L430.458 281.338L413.241 271.397V251.518L430.458 241.576L447.675 251.518Z" stroke="#FFF700"/>
<path d="M464.675 221.518V241.397L447.458 251.338L430.241 241.397V221.518L447.458 211.576L464.675 221.518Z" stroke="#FFF700"/>
<path d="M447.675 191.518V211.397L430.458 221.338L413.241 211.397V191.518L430.458 181.576L447.675 191.518Z" stroke="#FFF700"/>
<path d="M413.675 191.518V211.397L396.458 221.338L379.241 211.397V191.518L396.458 181.576L413.675 191.518Z" stroke="#FFF700"/>
<path d="M311.675 190.518V210.397L294.458 220.338L277.241 210.397V190.518L294.458 180.576L311.675 190.518Z" stroke="#FFF700"/>
<path d="M328.675 220.518V240.397L311.458 250.338L294.241 240.397V220.518L311.458 210.576L328.675 220.518Z" stroke="#FFF700"/>
<path d="M345.675 190.518V210.397L328.458 220.338L311.241 210.397V190.518L328.458 180.576L345.675 190.518Z" stroke="#FFF700"/>
<path d="M362.675 220.518V240.397L345.458 250.338L328.241 240.397V220.518L345.458 210.576L362.675 220.518Z" stroke="#FFF700"/>
<path d="M379.675 190.518V210.397L362.458 220.338L345.241 210.397V190.518L362.458 180.576L379.675 190.518Z" stroke="#FFF700"/>
<path d="M362.675 160.518V180.397L345.458 190.338L328.241 180.397V160.518L345.458 150.576L362.675 160.518Z" stroke="#FFF700"/>
<path d="M328.675 160.518V180.397L311.458 190.338L294.241 180.397V160.518L311.458 150.576L328.675 160.518Z" stroke="#FFF700"/>
<path d="M226.675 160.518V180.397L209.458 190.338L192.241 180.397V160.518L209.458 150.576L226.675 160.518Z" stroke="#FFF700"/>
<path d="M243.675 190.518V210.397L226.458 220.338L209.241 210.397V190.518L226.458 180.576L243.675 190.518Z" stroke="#FFF700"/>
<path d="M260.675 160.518V180.397L243.458 190.338L226.241 180.397V160.518L243.458 150.576L260.675 160.518Z" stroke="#FFF700"/>
<path d="M277.675 190.518V210.397L260.458 220.338L243.241 210.397V190.518L260.458 180.576L277.675 190.518Z" stroke="#FFF700"/>
<path d="M294.675 160.518V180.397L277.458 190.338L260.241 180.397V160.518L277.458 150.576L294.675 160.518Z" stroke="#FFF700"/>
<path d="M277.675 130.518V150.397L260.458 160.338L243.241 150.397V130.518L260.458 120.576L277.675 130.518Z" stroke="#FFF700"/>
<path d="M243.675 130.518V150.397L226.458 160.338L209.241 150.397V130.518L226.458 120.576L243.675 130.518Z" stroke="#FFF700"/>
<path d="M158.675 100.518V120.397L141.458 130.338L124.241 120.397V100.518L141.458 90.5762L158.675 100.518Z" stroke="#FFF700"/>
<path d="M175.675 130.518V150.397L158.458 160.338L141.241 150.397V130.518L158.458 120.576L175.675 130.518Z" stroke="#FFF700"/>
<path d="M192.675 100.518V120.397L175.458 130.338L158.241 120.397V100.518L175.458 90.5762L192.675 100.518Z" stroke="#FFF700"/>
<path d="M209.675 130.518V150.397L192.458 160.338L175.241 150.397V130.518L192.458 120.576L209.675 130.518Z" stroke="#FFF700"/>
<path d="M226.675 100.518V120.397L209.458 130.338L192.241 120.397V100.518L209.458 90.5762L226.675 100.518Z" stroke="#FFF700"/>
<path d="M209.675 70.5176V90.3975L192.458 100.338L175.241 90.3975V70.5176L192.458 60.5762L209.675 70.5176Z" stroke="#FFF700"/>
<path d="M175.675 70.5176V90.3975L158.458 100.338L141.241 90.3975V70.5176L158.458 60.5762L175.675 70.5176Z" stroke="#FFF700"/>
<path d="M72.6748 70.5176V90.3975L55.458 100.338L38.2412 90.3975V70.5176L55.458 60.5762L72.6748 70.5176Z" stroke="#FFF700"/>
<path d="M89.6748 100.518V120.397L72.458 130.338L55.2412 120.397V100.518L72.458 90.5762L89.6748 100.518Z" stroke="#FFF700"/>
<path d="M106.675 70.5176V90.3975L89.458 100.338L72.2412 90.3975V70.5176L89.458 60.5762L106.675 70.5176Z" stroke="#FFF700"/>
<path d="M123.675 100.518V120.397L106.458 130.338L89.2412 120.397V100.518L106.458 90.5762L123.675 100.518Z" stroke="#FFF700"/>
<path d="M140.675 70.5176V90.3975L123.458 100.338L106.241 90.3975V70.5176L123.458 60.5762L140.675 70.5176Z" stroke="#FFF700"/>
<path d="M123.675 40.5176V60.3975L106.458 70.3379L89.2412 60.3975V40.5176L106.458 30.5762L123.675 40.5176Z" stroke="#FFF700"/>
<path d="M89.6748 40.5176V60.3975L72.458 70.3379L55.2412 60.3975V40.5176L72.458 30.5762L89.6748 40.5176Z" stroke="#FFF700"/>
<path d="M4.6748 70.5176V90.3975L-12.542 100.338L-29.7588 90.3975V70.5176L-12.542 60.5762L4.6748 70.5176Z" stroke="#FFF700"/>
<path d="M21.6748 40.5176V60.3975L4.458 70.3379L-12.7588 60.3975V40.5176L4.458 30.5762L21.6748 40.5176Z" stroke="#FFF700"/>
<path d="M38.6748 70.5176V90.3975L21.458 100.338L4.2412 90.3975V70.5176L21.458 60.5762L38.6748 70.5176Z" stroke="#FFF700"/>
<path d="M55.6748 40.5176V60.3975L38.458 70.3379L21.2412 60.3975V40.5176L38.458 30.5762L55.6748 40.5176Z" stroke="#FFF700"/>
<path d="M38.6748 10.5176V30.3975L21.458 40.3379L4.2412 30.3975V10.5176L21.458 0.576172L38.6748 10.5176Z" stroke="#FFF700"/>
<path d="M4.6748 10.5176V30.3975L-12.542 40.3379L-29.7588 30.3975V10.5176L-12.542 0.576172L4.6748 10.5176Z" stroke="#FFF700"/>
<path d="M550.675 311.518V331.397L533.458 341.338L516.241 331.397V311.518L533.458 301.576L550.675 311.518Z" stroke="#FFF700"/>
<path d="M567.675 341.518V361.397L550.458 371.338L533.241 361.397V341.518L550.458 331.576L567.675 341.518Z" stroke="#FFF700"/>
<path d="M584.675 311.518V331.397L567.458 341.338L550.241 331.397V311.518L567.458 301.576L584.675 311.518Z" stroke="#FFF700"/>
<path d="M601.675 341.518V361.397L584.458 371.338L567.241 361.397V341.518L584.458 331.576L601.675 341.518Z" stroke="#FFF700"/>
<path d="M618.675 311.518V331.397L601.458 341.338L584.241 331.397V311.518L601.458 301.576L618.675 311.518Z" stroke="#FFF700"/>
<path d="M601.675 281.518V301.397L584.458 311.338L567.241 301.397V281.518L584.458 271.576L601.675 281.518Z" stroke="#FFF700"/>
<path d="M567.675 281.518V301.397L550.458 311.338L533.241 301.397V281.518L550.458 271.576L567.675 281.518Z" stroke="#FFF700"/>
<path d="M636.675 341.518V361.397L619.458 371.338L602.241 361.397V341.518L619.458 331.576L636.675 341.518Z" stroke="#FFF700"/>
<path d="M670.675 341.518V361.397L653.458 371.338L636.241 361.397V341.518L653.458 331.576L670.675 341.518Z" stroke="#FFF700"/>
<path d="M704.675 341.518V361.397L687.458 371.338L670.241 361.397V341.518L687.458 331.576L704.675 341.518Z" stroke="#FFF700"/>
<path d="M687.675 311.518V331.397L670.458 341.338L653.241 331.397V311.518L670.458 301.576L687.675 311.518Z" stroke="#FFF700"/>
<path d="M653.675 311.518V331.397L636.458 341.338L619.241 331.397V311.518L636.458 301.576L653.675 311.518Z" stroke="#FFF700"/>
</g>
<g clip-path="url(#clip1_23_742)">
<path d="M1905.33 311.518V331.397L1922.54 341.338L1939.76 331.397V311.518L1922.54 301.576L1905.33 311.518Z" stroke="#FFF700"/>
<path d="M1888.33 341.518V361.397L1905.54 371.338L1922.76 361.397V341.518L1905.54 331.576L1888.33 341.518Z" stroke="#FFF700"/>
<path d="M1871.33 311.518V331.397L1888.54 341.338L1905.76 331.397V311.518L1888.54 301.576L1871.33 311.518Z" stroke="#FFF700"/>
<path d="M1854.33 341.518V361.397L1871.54 371.338L1888.76 361.397V341.518L1871.54 331.576L1854.33 341.518Z" stroke="#FFF700"/>
<path d="M1837.33 311.518V331.397L1854.54 341.338L1871.76 331.397V311.518L1854.54 301.576L1837.33 311.518Z" stroke="#FFF700"/>
<path d="M1854.33 281.518V301.397L1871.54 311.338L1888.76 301.397V281.518L1871.54 271.576L1854.33 281.518Z" stroke="#FFF700"/>
<path d="M1888.33 281.518V301.397L1905.54 311.338L1922.76 301.397V281.518L1905.54 271.576L1888.33 281.518Z" stroke="#FFF700"/>
<path d="M1820.32 341.518V361.397L1837.54 371.338L1854.76 361.397V341.518L1837.54 331.576L1820.32 341.518Z" stroke="#FFF700"/>
<path d="M1786.33 341.518V361.397L1803.54 371.338L1820.76 361.397V341.518L1803.54 331.576L1786.33 341.518Z" stroke="#FFF700"/>
<path d="M1752.33 341.518V361.397L1769.54 371.338L1786.76 361.397V341.518L1769.54 331.576L1752.33 341.518Z" stroke="#FFF700"/>
<path d="M1769.33 311.518V331.397L1786.54 341.338L1803.76 331.397V311.518L1786.54 301.576L1769.33 311.518Z" stroke="#FFF700"/>
<path d="M1803.32 311.518V331.397L1820.54 341.338L1837.76 331.397V311.518L1820.54 301.576L1803.32 311.518Z" stroke="#FFF700"/>
<path d="M1837.33 251.518V271.397L1854.54 281.338L1871.76 271.397V251.518L1854.54 241.576L1837.33 251.518Z" stroke="#FFF700"/>
<path d="M1820.32 281.518V301.397L1837.54 311.338L1854.76 301.397V281.518L1837.54 271.576L1820.32 281.518Z" stroke="#FFF700"/>
<path d="M1803.32 251.518V271.397L1820.54 281.338L1837.76 271.397V251.518L1820.54 241.576L1803.32 251.518Z" stroke="#FFF700"/>
<path d="M1786.33 281.518V301.397L1803.54 311.338L1820.76 301.397V281.518L1803.54 271.576L1786.33 281.518Z" stroke="#FFF700"/>
<path d="M1769.33 251.518V271.397L1786.54 281.338L1803.76 271.397V251.518L1786.54 241.576L1769.33 251.518Z" stroke="#FFF700"/>
<path d="M1786.33 221.518V241.397L1803.54 251.338L1820.76 241.397V221.518L1803.54 211.576L1786.33 221.518Z" stroke="#FFF700"/>
<path d="M1820.32 221.518V241.397L1837.54 251.338L1854.76 241.397V221.518L1837.54 211.576L1820.32 221.518Z" stroke="#FFF700"/>
<path d="M1905.33 251.518V271.397L1922.54 281.338L1939.76 271.397V251.518L1922.54 241.576L1905.33 251.518Z" stroke="#FFF700"/>
<path d="M1888.33 221.518V241.397L1905.54 251.338L1922.76 241.397V221.518L1905.54 211.576L1888.33 221.518Z" stroke="#FFF700"/>
<path d="M1871.33 251.518V271.397L1888.54 281.338L1905.76 271.397V251.518L1888.54 241.576L1871.33 251.518Z" stroke="#FFF700"/>
<path d="M1854.33 221.518V241.397L1871.54 251.338L1888.76 241.397V221.518L1871.54 211.576L1854.33 221.518Z" stroke="#FFF700"/>
<path d="M1871.33 191.518V211.397L1888.54 221.338L1905.76 211.397V191.518L1888.54 181.576L1871.33 191.518Z" stroke="#FFF700"/>
<path d="M1905.33 191.518V211.397L1922.54 221.338L1939.76 211.397V191.518L1922.54 181.576L1905.33 191.518Z" stroke="#FFF700"/>
<path d="M1735.33 311.518V331.397L1752.54 341.338L1769.76 331.397V311.518L1752.54 301.576L1735.33 311.518Z" stroke="#FFF700"/>
<path d="M1718.33 341.518V361.397L1735.54 371.338L1752.76 361.397V341.518L1735.54 331.576L1718.33 341.518Z" stroke="#FFF700"/>
<path d="M1701.33 311.518V331.397L1718.54 341.338L1735.76 331.397V311.518L1718.54 301.576L1701.33 311.518Z" stroke="#FFF700"/>
<path d="M1684.33 341.518V361.397L1701.54 371.338L1718.76 361.397V341.518L1701.54 331.576L1684.33 341.518Z" stroke="#FFF700"/>
<path d="M1667.33 311.518V331.397L1684.54 341.338L1701.76 331.397V311.518L1684.54 301.576L1667.33 311.518Z" stroke="#FFF700"/>
<path d="M1684.33 281.518V301.397L1701.54 311.338L1718.76 301.397V281.518L1701.54 271.576L1684.33 281.518Z" stroke="#FFF700"/>
<path d="M1718.33 281.518V301.397L1735.54 311.338L1752.76 301.397V281.518L1735.54 271.576L1718.33 281.518Z" stroke="#FFF700"/>
<path d="M1752.33 221.518V241.397L1769.54 251.338L1786.76 241.397V221.518L1769.54 211.576L1752.33 221.518Z" stroke="#FFF700"/>
<path d="M1735.33 251.518V271.397L1752.54 281.338L1769.76 271.397V251.518L1752.54 241.576L1735.33 251.518Z" stroke="#FFF700"/>
<path d="M1718.33 221.518V241.397L1735.54 251.338L1752.76 241.397V221.518L1735.54 211.576L1718.33 221.518Z" stroke="#FFF700"/>
<path d="M1701.33 251.518V271.397L1718.54 281.338L1735.76 271.397V251.518L1718.54 241.576L1701.33 251.518Z" stroke="#FFF700"/>
<path d="M1684.33 221.518V241.397L1701.54 251.338L1718.76 241.397V221.518L1701.54 211.576L1684.33 221.518Z" stroke="#FFF700"/>
<path d="M1701.33 191.518V211.397L1718.54 221.338L1735.76 211.397V191.518L1718.54 181.576L1701.33 191.518Z" stroke="#FFF700"/>
<path d="M1735.33 191.518V211.397L1752.54 221.338L1769.76 211.397V191.518L1752.54 181.576L1735.33 191.518Z" stroke="#FFF700"/>
<path d="M1650.33 341.518V361.397L1667.54 371.338L1684.76 361.397V341.518L1667.54 331.576L1650.33 341.518Z" stroke="#FFF700"/>
<path d="M1616.33 341.518V361.397L1633.54 371.338L1650.76 361.397V341.518L1633.54 331.576L1616.33 341.518Z" stroke="#FFF700"/>
<path d="M1582.33 341.518V361.397L1599.54 371.338L1616.76 361.397V341.518L1599.54 331.576L1582.33 341.518Z" stroke="#FFF700"/>
<path d="M1599.33 311.518V331.397L1616.54 341.338L1633.76 331.397V311.518L1616.54 301.576L1599.33 311.518Z" stroke="#FFF700"/>
<path d="M1633.33 311.518V331.397L1650.54 341.338L1667.76 331.397V311.518L1650.54 301.576L1633.33 311.518Z" stroke="#FFF700"/>
<path d="M1667.33 251.518V271.397L1684.54 281.338L1701.76 271.397V251.518L1684.54 241.576L1667.33 251.518Z" stroke="#FFF700"/>
<path d="M1650.33 281.518V301.397L1667.54 311.338L1684.76 301.397V281.518L1667.54 271.576L1650.33 281.518Z" stroke="#FFF700"/>
<path d="M1633.33 251.518V271.397L1650.54 281.338L1667.76 271.397V251.518L1650.54 241.576L1633.33 251.518Z" stroke="#FFF700"/>
<path d="M1616.33 281.518V301.397L1633.54 311.338L1650.76 301.397V281.518L1633.54 271.576L1616.33 281.518Z" stroke="#FFF700"/>
<path d="M1599.33 251.518V271.397L1616.54 281.338L1633.76 271.397V251.518L1616.54 241.576L1599.33 251.518Z" stroke="#FFF700"/>
<path d="M1616.33 221.518V241.397L1633.54 251.338L1650.76 241.397V221.518L1633.54 211.576L1616.33 221.518Z" stroke="#FFF700"/>
<path d="M1650.33 221.518V241.397L1667.54 251.338L1684.76 241.397V221.518L1667.54 211.576L1650.33 221.518Z" stroke="#FFF700"/>
<path d="M1582.33 281.518V301.397L1599.54 311.338L1616.76 301.397V281.518L1599.54 271.576L1582.33 281.518Z" stroke="#FFF700"/>
<path d="M1565.33 311.518V331.397L1582.54 341.338L1599.76 331.397V311.518L1582.54 301.576L1565.33 311.518Z" stroke="#FFF700"/>
<path d="M1548.33 281.518V301.397L1565.54 311.338L1582.76 301.397V281.518L1565.54 271.576L1548.33 281.518Z" stroke="#FFF700"/>
<path d="M1531.33 311.518V331.397L1548.54 341.338L1565.76 331.397V311.518L1548.54 301.576L1531.33 311.518Z" stroke="#FFF700"/>
<path d="M1514.33 281.518V301.397L1531.54 311.338L1548.76 301.397V281.518L1531.54 271.576L1514.33 281.518Z" stroke="#FFF700"/>
<path d="M1531.33 251.518V271.397L1548.54 281.338L1565.76 271.397V251.518L1548.54 241.576L1531.33 251.518Z" stroke="#FFF700"/>
<path d="M1565.33 251.518V271.397L1582.54 281.338L1599.76 271.397V251.518L1582.54 241.576L1565.33 251.518Z" stroke="#FFF700"/>
<path d="M1514.33 341.518V361.397L1531.54 371.338L1548.76 361.397V341.518L1531.54 331.576L1514.33 341.518Z" stroke="#FFF700"/>
<path d="M1480.33 341.518V361.397L1497.54 371.338L1514.76 361.397V341.518L1497.54 331.576L1480.33 341.518Z" stroke="#FFF700"/>
<path d="M1446.33 341.518V361.397L1463.54 371.338L1480.76 361.397V341.518L1463.54 331.576L1446.33 341.518Z" stroke="#FFF700"/>
<path d="M1463.33 311.518V331.397L1480.54 341.338L1497.76 331.397V311.518L1480.54 301.576L1463.33 311.518Z" stroke="#FFF700"/>
<path d="M1497.33 311.518V331.397L1514.54 341.338L1531.76 331.397V311.518L1514.54 301.576L1497.33 311.518Z" stroke="#FFF700"/>
<path d="M1378.33 341.518V361.397L1395.54 371.338L1412.76 361.397V341.518L1395.54 331.576L1378.33 341.518Z" stroke="#FFF700"/>
<path d="M1412.33 341.518V361.397L1429.54 371.338L1446.76 361.397V341.518L1429.54 331.576L1412.33 341.518Z" stroke="#FFF700"/>
<path d="M1820.32 161.518V181.397L1837.54 191.338L1854.76 181.397V161.518L1837.54 151.576L1820.32 161.518Z" stroke="#FFF700"/>
<path d="M1803.32 191.518V211.397L1820.54 221.338L1837.76 211.397V191.518L1820.54 181.576L1803.32 191.518Z" stroke="#FFF700"/>
<path d="M1786.33 161.518V181.397L1803.54 191.338L1820.76 181.397V161.518L1803.54 151.576L1786.33 161.518Z" stroke="#FFF700"/>
<path d="M1769.33 191.518V211.397L1786.54 221.338L1803.76 211.397V191.518L1786.54 181.576L1769.33 191.518Z" stroke="#FFF700"/>
<path d="M1752.33 161.518V181.397L1769.54 191.338L1786.76 181.397V161.518L1769.54 151.576L1752.33 161.518Z" stroke="#FFF700"/>
<path d="M1769.33 131.518V151.397L1786.54 161.338L1803.76 151.397V131.518L1786.54 121.576L1769.33 131.518Z" stroke="#FFF700"/>
<path d="M1803.32 131.518V151.397L1820.54 161.338L1837.76 151.397V131.518L1820.54 121.576L1803.32 131.518Z" stroke="#FFF700"/>
<path d="M1906.33 131.518V151.397L1923.54 161.338L1940.76 151.397V131.518L1923.54 121.576L1906.33 131.518Z" stroke="#FFF700"/>
<path d="M1889.33 161.518V181.397L1906.54 191.338L1923.76 181.397V161.518L1906.54 151.576L1889.33 161.518Z" stroke="#FFF700"/>
<path d="M1872.33 131.518V151.397L1889.54 161.338L1906.76 151.397V131.518L1889.54 121.576L1872.33 131.518Z" stroke="#FFF700"/>
<path d="M1855.33 161.518V181.397L1872.54 191.338L1889.76 181.397V161.518L1872.54 151.576L1855.33 161.518Z" stroke="#FFF700"/>
<path d="M1838.33 131.518V151.397L1855.54 161.338L1872.76 151.397V131.518L1855.54 121.576L1838.33 131.518Z" stroke="#FFF700"/>
<path d="M1855.33 101.518V121.397L1872.54 131.338L1889.76 121.397V101.518L1872.54 91.5762L1855.33 101.518Z" stroke="#FFF700"/>
<path d="M1889.33 101.518V121.397L1906.54 131.338L1923.76 121.397V101.518L1906.54 91.5762L1889.33 101.518Z" stroke="#FFF700"/>
<path d="M1446.33 282.518V302.397L1463.54 312.338L1480.76 302.397V282.518L1463.54 272.576L1446.33 282.518Z" stroke="#FFF700"/>
<path d="M1429.33 312.518V332.397L1446.54 342.338L1463.76 332.397V312.518L1446.54 302.576L1429.33 312.518Z" stroke="#FFF700"/>
<path d="M1412.33 282.518V302.397L1429.54 312.338L1446.76 302.397V282.518L1429.54 272.576L1412.33 282.518Z" stroke="#FFF700"/>
<path d="M1395.33 312.518V332.397L1412.54 342.338L1429.76 332.397V312.518L1412.54 302.576L1395.33 312.518Z" stroke="#FFF700"/>
<path d="M1378.33 282.518V302.397L1395.54 312.338L1412.76 302.397V282.518L1395.54 272.576L1378.33 282.518Z" stroke="#FFF700"/>
<path d="M1395.33 252.518V272.397L1412.54 282.338L1429.76 272.397V252.518L1412.54 242.576L1395.33 252.518Z" stroke="#FFF700"/>
<path d="M1429.33 252.518V272.397L1446.54 282.338L1463.76 272.397V252.518L1446.54 242.576L1429.33 252.518Z" stroke="#FFF700"/>
<path d="M1514.33 222.518V242.397L1531.54 252.338L1548.76 242.397V222.518L1531.54 212.576L1514.33 222.518Z" stroke="#FFF700"/>
<path d="M1497.33 252.518V272.397L1514.54 282.338L1531.76 272.397V252.518L1514.54 242.576L1497.33 252.518Z" stroke="#FFF700"/>
<path d="M1480.33 222.518V242.397L1497.54 252.338L1514.76 242.397V222.518L1497.54 212.576L1480.33 222.518Z" stroke="#FFF700"/>
<path d="M1463.33 252.518V272.397L1480.54 282.338L1497.76 272.397V252.518L1480.54 242.576L1463.33 252.518Z" stroke="#FFF700"/>
<path d="M1446.33 222.518V242.397L1463.54 252.338L1480.76 242.397V222.518L1463.54 212.576L1446.33 222.518Z" stroke="#FFF700"/>
<path d="M1463.33 192.518V212.397L1480.54 222.338L1497.76 212.397V192.518L1480.54 182.576L1463.33 192.518Z" stroke="#FFF700"/>
<path d="M1497.33 192.518V212.397L1514.54 222.338L1531.76 212.397V192.518L1514.54 182.576L1497.33 192.518Z" stroke="#FFF700"/>
<path d="M1599.33 191.518V211.397L1616.54 221.338L1633.76 211.397V191.518L1616.54 181.576L1599.33 191.518Z" stroke="#FFF700"/>
<path d="M1582.33 221.518V241.397L1599.54 251.338L1616.76 241.397V221.518L1599.54 211.576L1582.33 221.518Z" stroke="#FFF700"/>
<path d="M1565.33 191.518V211.397L1582.54 221.338L1599.76 211.397V191.518L1582.54 181.576L1565.33 191.518Z" stroke="#FFF700"/>
<path d="M1548.33 221.518V241.397L1565.54 251.338L1582.76 241.397V221.518L1565.54 211.576L1548.33 221.518Z" stroke="#FFF700"/>
<path d="M1531.33 191.518V211.397L1548.54 221.338L1565.76 211.397V191.518L1548.54 181.576L1531.33 191.518Z" stroke="#FFF700"/>
<path d="M1548.33 161.518V181.397L1565.54 191.338L1582.76 181.397V161.518L1565.54 151.576L1548.33 161.518Z" stroke="#FFF700"/>
<path d="M1582.33 161.518V181.397L1599.54 191.338L1616.76 181.397V161.518L1599.54 151.576L1582.33 161.518Z" stroke="#FFF700"/>
<path d="M1684.33 161.518V181.397L1701.54 191.338L1718.76 181.397V161.518L1701.54 151.576L1684.33 161.518Z" stroke="#FFF700"/>
<path d="M1667.33 191.518V211.397L1684.54 221.338L1701.76 211.397V191.518L1684.54 181.576L1667.33 191.518Z" stroke="#FFF700"/>
<path d="M1650.33 161.518V181.397L1667.54 191.338L1684.76 181.397V161.518L1667.54 151.576L1650.33 161.518Z" stroke="#FFF700"/>
<path d="M1633.33 191.518V211.397L1650.54 221.338L1667.76 211.397V191.518L1650.54 181.576L1633.33 191.518Z" stroke="#FFF700"/>
<path d="M1616.33 161.518V181.397L1633.54 191.338L1650.76 181.397V161.518L1633.54 151.576L1616.33 161.518Z" stroke="#FFF700"/>
<path d="M1633.33 131.518V151.397L1650.54 161.338L1667.76 151.397V131.518L1650.54 121.576L1633.33 131.518Z" stroke="#FFF700"/>
<path d="M1667.33 131.518V151.397L1684.54 161.338L1701.76 151.397V131.518L1684.54 121.576L1667.33 131.518Z" stroke="#FFF700"/>
<path d="M1752.33 101.518V121.397L1769.54 131.338L1786.76 121.397V101.518L1769.54 91.5762L1752.33 101.518Z" stroke="#FFF700"/>
<path d="M1735.33 131.518V151.397L1752.54 161.338L1769.76 151.397V131.518L1752.54 121.576L1735.33 131.518Z" stroke="#FFF700"/>
<path d="M1718.33 101.518V121.397L1735.54 131.338L1752.76 121.397V101.518L1735.54 91.5762L1718.33 101.518Z" stroke="#FFF700"/>
<path d="M1701.33 131.518V151.397L1718.54 161.338L1735.76 151.397V131.518L1718.54 121.576L1701.33 131.518Z" stroke="#FFF700"/>
<path d="M1684.33 101.518V121.397L1701.54 131.338L1718.76 121.397V101.518L1701.54 91.5762L1684.33 101.518Z" stroke="#FFF700"/>
<path d="M1701.33 71.5176V91.3975L1718.54 101.338L1735.76 91.3975V71.5176L1718.54 61.5762L1701.33 71.5176Z" stroke="#FFF700"/>
<path d="M1735.33 71.5176V91.3975L1752.54 101.338L1769.76 91.3975V71.5176L1752.54 61.5762L1735.33 71.5176Z" stroke="#FFF700"/>
<path d="M1838.33 71.5176V91.3975L1855.54 101.338L1872.76 91.3975V71.5176L1855.54 61.5762L1838.33 71.5176Z" stroke="#FFF700"/>
<path d="M1821.33 101.518V121.397L1838.54 131.338L1855.76 121.397V101.518L1838.54 91.5762L1821.33 101.518Z" stroke="#FFF700"/>
<path d="M1804.32 71.5176V91.3975L1821.54 101.338L1838.76 91.3975V71.5176L1821.54 61.5762L1804.32 71.5176Z" stroke="#FFF700"/>
<path d="M1787.32 101.518V121.397L1804.54 131.338L1821.76 121.397V101.518L1804.54 91.5762L1787.32 101.518Z" stroke="#FFF700"/>
<path d="M1770.33 71.5176V91.3975L1787.54 101.338L1804.76 91.3975V71.5176L1787.54 61.5762L1770.33 71.5176Z" stroke="#FFF700"/>
<path d="M1787.32 41.5176V61.3975L1804.54 71.3379L1821.76 61.3975V41.5176L1804.54 31.5762L1787.32 41.5176Z" stroke="#FFF700"/>
<path d="M1821.33 41.5176V61.3975L1838.54 71.3379L1855.76 61.3975V41.5176L1838.54 31.5762L1821.33 41.5176Z" stroke="#FFF700"/>
<path d="M1906.33 71.5176V91.3975L1923.54 101.338L1940.76 91.3975V71.5176L1923.54 61.5762L1906.33 71.5176Z" stroke="#FFF700"/>
<path d="M1889.33 41.5176V61.3975L1906.54 71.3379L1923.76 61.3975V41.5176L1906.54 31.5762L1889.33 41.5176Z" stroke="#FFF700"/>
<path d="M1872.33 71.5176V91.3975L1889.54 101.338L1906.76 91.3975V71.5176L1889.54 61.5762L1872.33 71.5176Z" stroke="#FFF700"/>
<path d="M1855.33 41.5176V61.3975L1872.54 71.3379L1889.76 61.3975V41.5176L1872.54 31.5762L1855.33 41.5176Z" stroke="#FFF700"/>
<path d="M1872.33 11.5176V31.3975L1889.54 41.3379L1906.76 31.3975V11.5176L1889.54 1.57617L1872.33 11.5176Z" stroke="#FFF700"/>
<path d="M1906.33 11.5176V31.3975L1923.54 41.3379L1940.76 31.3975V11.5176L1923.54 1.57617L1906.33 11.5176Z" stroke="#FFF700"/>
<path d="M1360.33 312.518V332.397L1377.54 342.338L1394.76 332.397V312.518L1377.54 302.576L1360.33 312.518Z" stroke="#FFF700"/>
<path d="M1343.33 342.518V362.397L1360.54 372.338L1377.76 362.397V342.518L1360.54 332.576L1343.33 342.518Z" stroke="#FFF700"/>
<path d="M1326.33 312.518V332.397L1343.54 342.338L1360.76 332.397V312.518L1343.54 302.576L1326.33 312.518Z" stroke="#FFF700"/>
<path d="M1309.33 342.518V362.397L1326.54 372.338L1343.76 362.397V342.518L1326.54 332.576L1309.33 342.518Z" stroke="#FFF700"/>
<path d="M1292.33 312.518V332.397L1309.54 342.338L1326.76 332.397V312.518L1309.54 302.576L1292.33 312.518Z" stroke="#FFF700"/>
<path d="M1309.33 282.518V302.397L1326.54 312.338L1343.76 302.397V282.518L1326.54 272.576L1309.33 282.518Z" stroke="#FFF700"/>
<path d="M1343.33 282.518V302.397L1360.54 312.338L1377.76 302.397V282.518L1360.54 272.576L1343.33 282.518Z" stroke="#FFF700"/>
<path d="M1274.33 342.518V362.397L1291.54 372.338L1308.76 362.397V342.518L1291.54 332.576L1274.33 342.518Z" stroke="#FFF700"/>
<path d="M1240.33 342.518V362.397L1257.54 372.338L1274.76 362.397V342.518L1257.54 332.576L1240.33 342.518Z" stroke="#FFF700"/>
<path d="M1206.33 342.518V362.397L1223.54 372.338L1240.76 362.397V342.518L1223.54 332.576L1206.33 342.518Z" stroke="#FFF700"/>
<path d="M1223.33 312.518V332.397L1240.54 342.338L1257.76 332.397V312.518L1240.54 302.576L1223.33 312.518Z" stroke="#FFF700"/>
<path d="M1257.33 312.518V332.397L1274.54 342.338L1291.76 332.397V312.518L1274.54 302.576L1257.33 312.518Z" stroke="#FFF700"/>
</g>
<defs>
<clipPath id="clip0_23_742">
<rect width="718" height="353" fill="white" transform="translate(-10)"/>
</clipPath>
<clipPath id="clip1_23_742">
<rect width="718" height="353" fill="white" transform="matrix(-1 0 0 1 1921 1)"/>
</clipPath>
</defs>
</svg>
